<svg xmlns="http://www.w3.org/2000/svg" width="64" height="64" viewBox="0 0 64 64" fill="none">
  <circle cx="32" cy="32" r="32" fill="#25D366"/>
  <path fill="#fff" d="M32.18 15.2c-9.22 0-16.7 7.41-16.7 16.54 0 2.92.77 5.77 2.24 8.28L15 49.2l9.44-2.48a16.86 16.86 0 0 0 7.74 1.87h.01c9.22 0 16.7-7.41 16.7-16.55 0-4.42-1.73-8.57-4.88-11.68a16.82 16.82 0 0 0-11.82-4.86Zm0 30.56h-.01c-2.45 0-4.85-.66-6.94-1.9l-.5-.29-5.6 1.47 1.5-5.42-.32-.55a13.67 13.67 0 0 1-2.08-7.2c0-7.56 6.2-13.71 13.83-13.71 3.69 0 7.16 1.43 9.76 4.02a13.6 13.6 0 0 1 4.05 9.7c0 7.56-6.2 13.71-13.69 13.88Z"/>
  <path fill="#fff" d="M40.6 36.7c-.46-.23-2.71-1.34-3.13-1.5-.42-.15-.72-.23-1.03.23-.3.46-1.18 1.5-1.44 1.8-.27.31-.53.35-.99.12-.46-.23-1.92-.7-3.66-2.24-1.35-1.2-2.26-2.69-2.53-3.15-.27-.46-.03-.7.2-.93.2-.2.46-.53.69-.8.23-.27.3-.46.46-.77.15-.31.08-.58-.04-.81-.12-.23-1.03-2.45-1.41-3.35-.37-.9-.75-.78-1.03-.8-.27-.01-.57-.01-.88-.01-.3 0-.8.12-1.22.58-.42.46-1.6 1.56-1.6 3.81 0 2.26 1.64 4.43 1.87 4.74.23.31 3.2 5.1 7.89 6.95 3.89 1.53 4.68 1.23 5.52 1.15.84-.08 2.71-1.11 3.09-2.18.38-1.08.38-2 .27-2.18-.12-.19-.42-.31-.88-.54Z"/>
</svg>
