<svg xmlns="http://www.w3.org/2000/svg" width="220" height="128" viewBox="0 0 220 128" fill="none">
  <rect x="2" y="2" width="216" height="124" rx="20" fill="#F8FAFC" stroke="#D5DCE5" stroke-width="4"/>
  <rect x="28" y="36" width="100" height="56" rx="10" fill="#0F9D58"/>
  <rect x="40" y="48" width="76" height="32" rx="8" fill="#34A853"/>
  <circle cx="78" cy="64" r="11" fill="#E8F5E9"/>
  <path d="M76 57h4v2h2c2.8 0 5 2 5 4.4 0 2.4-2.2 4.4-5 4.4h-8v-2h8c1.4 0 2.5-.9 2.5-2.1S83.4 61.6 82 61.6h-2c-2.8 0-5-2-5-4.4S77.2 52.8 80 52.8h2v-2h4v2h6v2h-6c-1.4 0-2.5.9-2.5 2.1S84.6 59 86 59h2c2.8 0 5 2 5 4.4 0 2.4-2.2 4.4-5 4.4h-2v2h-4v-2h-6v-2h6c1.4 0 2.5-.9 2.5-2.1S83.4 61.6 82 61.6h-2c-2.8 0-5-2-5-4.4 0-2.4 2.2-4.4 5-4.4h2v-2z" fill="#0F9D58"/>
  <rect x="92" y="24" width="100" height="56" rx="10" fill="#34A853" opacity=".9"/>
  <rect x="104" y="36" width="76" height="32" rx="8" fill="#66BB6A"/>
  <circle cx="142" cy="52" r="11" fill="#E8F5E9"/>
</svg>