<svg xmlns="http://www.w3.org/2000/svg" width="220" height="128" viewBox="0 0 220 128" fill="none">
  <rect x="2" y="2" width="216" height="124" rx="20" fill="#ffffff" stroke="#D5DCE5" stroke-width="4"/>
  <path d="M78 33h18L82 95H64L78 33Z" fill="#1A1F71"/>
  <path d="M132 33c-14 0-24 7-24 17 0 8 7 13 12 15 5 2 7 4 7 6 0 3-4 5-8 5-7 0-11-1-16-3l-2 2 3 15c4 2 11 4 18 4 15 0 25-7 25-18 0-6-4-11-12-15-5-2-8-4-8-6 0-2 3-5 8-5 5 0 9 1 12 2l2-2 3-14c-4-2-10-3-16-3Z" fill="#1A1F71"/>
  <path d="M172 33h14l8 62h-16l-1-9h-19l-4 9h-18l36-62Zm1 40-2-18-8 18h10Z" fill="#1A1F71"/>
  <rect x="20" y="100" width="180" height="8" rx="4" fill="#F7B600"/>
</svg>